<mxfile host="app.diagrams.net" modified="2024-05-07T11:31:41.063Z" agent="Mozilla/5.0 (Macintosh; Intel Mac OS X 10_15_7) AppleWebKit/537.36 (KHTML, like Gecko) Chrome/124.0.0.0 Safari/537.36 Edg/124.0.0.0" etag="quhxG7ZmVI8DKleCaqq-" version="24.3.1" type="device">
  <diagram id="yPxyJZ8AM_hMuL3Unpa9" name="complex gitflow">
    <mxGraphModel dx="1029" dy="689" grid="0" gridSize="10" guides="1" tooltips="1" connect="1" arrows="1" fold="1" page="1" pageScale="1" pageWidth="3000" pageHeight="800" background="none" math="0" shadow="0">
      <root>
        <mxCell id="0" />
        <mxCell id="1" parent="0" />
        <mxCell id="uWUnNED6HEl2aK5fdaIb-8" value="" style="edgeStyle=orthogonalEdgeStyle;rounded=0;html=1;jettySize=auto;orthogonalLoop=1;plain-blue;endArrow=none;endFill=0;strokeWidth=3;strokeColor=#CCE5FF;entryX=0;entryY=0.5;entryDx=0;entryDy=0;entryPerimeter=0;" parent="1" source="uWUnNED6HEl2aK5fdaIb-10" target="PdMRBuFNjOPwppV06eXI-8" edge="1">
          <mxGeometry x="292.25" y="211" as="geometry">
            <mxPoint x="342.25" y="218" as="targetPoint" />
          </mxGeometry>
        </mxCell>
        <mxCell id="PdMRBuFNjOPwppV06eXI-59" style="edgeStyle=orthogonalEdgeStyle;curved=1;rounded=0;orthogonalLoop=1;jettySize=auto;html=1;exitX=0;exitY=0.5;exitDx=0;exitDy=0;exitPerimeter=0;strokeColor=#CCE5FF;strokeWidth=3;align=center;verticalAlign=middle;fontFamily=Helvetica;fontSize=12;fontColor=default;labelBackgroundColor=default;endArrow=none;endFill=0;" edge="1" parent="1" source="uWUnNED6HEl2aK5fdaIb-10">
          <mxGeometry relative="1" as="geometry">
            <mxPoint x="120" y="218" as="targetPoint" />
          </mxGeometry>
        </mxCell>
        <mxCell id="uWUnNED6HEl2aK5fdaIb-10" value="1.0" style="verticalLabelPosition=top;verticalAlign=bottom;html=1;strokeWidth=3;shape=mxgraph.flowchart.on-page_reference;plain-blue;gradientColor=none;fillColor=#2F4D5D;strokeColor=#CCE5FF;labelPosition=center;align=center;fontColor=#CCE5FF;" parent="1" vertex="1">
          <mxGeometry x="152.25" y="203" width="30" height="30" as="geometry" />
        </mxCell>
        <mxCell id="uWUnNED6HEl2aK5fdaIb-13" value="main" style="text;html=1;strokeColor=none;fillColor=none;align=right;verticalAlign=middle;whiteSpace=wrap;overflow=hidden;fontSize=14;fontStyle=1;fontFamily=Courier New;fontColor=#CCE5FF;" parent="1" vertex="1">
          <mxGeometry x="40" y="200" width="50" height="42" as="geometry" />
        </mxCell>
        <mxCell id="PdMRBuFNjOPwppV06eXI-2" value="stage1" style="text;html=1;strokeColor=none;fillColor=none;align=right;verticalAlign=middle;whiteSpace=wrap;overflow=hidden;fontSize=14;fontStyle=1;fontFamily=Courier New;imageAlign=right;fontColor=#CCE5FF;" vertex="1" parent="1">
          <mxGeometry x="20" y="238" width="70" height="42" as="geometry" />
        </mxCell>
        <mxCell id="PdMRBuFNjOPwppV06eXI-10" style="edgeStyle=orthogonalEdgeStyle;curved=1;rounded=0;orthogonalLoop=1;jettySize=auto;html=1;strokeColor=#CCE5FF;strokeWidth=3;align=center;verticalAlign=middle;fontFamily=Helvetica;fontSize=11;fontColor=default;labelBackgroundColor=default;endArrow=classic;entryX=0;entryY=0.5;entryDx=0;entryDy=0;entryPerimeter=0;" edge="1" parent="1" source="PdMRBuFNjOPwppV06eXI-3" target="PdMRBuFNjOPwppV06eXI-11">
          <mxGeometry relative="1" as="geometry">
            <mxPoint x="290" y="295" as="targetPoint" />
          </mxGeometry>
        </mxCell>
        <mxCell id="PdMRBuFNjOPwppV06eXI-3" value="1.1" style="verticalLabelPosition=bottom;verticalAlign=top;html=1;strokeWidth=3;shape=mxgraph.flowchart.on-page_reference;plain-blue;gradientColor=none;fillColor=#2F4D5D;strokeColor=#CCE5FF;fontStyle=0;fontColor=#CCE5FF;" vertex="1" parent="1">
          <mxGeometry x="200" y="250" width="30" height="30" as="geometry" />
        </mxCell>
        <mxCell id="PdMRBuFNjOPwppV06eXI-7" style="edgeStyle=orthogonalEdgeStyle;rounded=0;orthogonalLoop=1;jettySize=auto;html=1;entryX=0;entryY=0.5;entryDx=0;entryDy=0;entryPerimeter=0;exitX=0.5;exitY=1;exitDx=0;exitDy=0;exitPerimeter=0;curved=1;strokeWidth=3;strokeColor=#CCE5FF;" edge="1" parent="1" source="uWUnNED6HEl2aK5fdaIb-10" target="PdMRBuFNjOPwppV06eXI-3">
          <mxGeometry relative="1" as="geometry" />
        </mxCell>
        <mxCell id="PdMRBuFNjOPwppV06eXI-8" value="2.0" style="verticalLabelPosition=top;verticalAlign=bottom;html=1;strokeWidth=3;shape=mxgraph.flowchart.on-page_reference;plain-blue;gradientColor=none;fillColor=#2F4D5D;strokeColor=#CCE5FF;labelPosition=center;align=center;fontStyle=0;fontColor=#CCE5FF;" vertex="1" parent="1">
          <mxGeometry x="300" y="203" width="30" height="30" as="geometry" />
        </mxCell>
        <mxCell id="PdMRBuFNjOPwppV06eXI-11" value="1.2" style="verticalLabelPosition=bottom;verticalAlign=top;html=1;strokeWidth=3;shape=mxgraph.flowchart.on-page_reference;plain-blue;gradientColor=none;fillColor=#2F4D5D;strokeColor=#CCE5FF;fontColor=#CCE5FF;" vertex="1" parent="1">
          <mxGeometry x="260" y="250" width="30" height="30" as="geometry" />
        </mxCell>
        <mxCell id="PdMRBuFNjOPwppV06eXI-14" style="edgeStyle=orthogonalEdgeStyle;curved=1;rounded=0;orthogonalLoop=1;jettySize=auto;html=1;entryX=0.5;entryY=1;entryDx=0;entryDy=0;entryPerimeter=0;strokeColor=#CCE5FF;strokeWidth=3;align=center;verticalAlign=middle;fontFamily=Helvetica;fontSize=11;fontColor=default;labelBackgroundColor=default;endArrow=classic;" edge="1" parent="1" source="PdMRBuFNjOPwppV06eXI-11" target="PdMRBuFNjOPwppV06eXI-8">
          <mxGeometry relative="1" as="geometry" />
        </mxCell>
        <mxCell id="PdMRBuFNjOPwppV06eXI-21" value="" style="edgeStyle=orthogonalEdgeStyle;curved=1;rounded=0;orthogonalLoop=1;jettySize=auto;html=1;strokeColor=#CCE5FF;strokeWidth=3;align=center;verticalAlign=middle;fontFamily=Helvetica;fontSize=12;fontColor=default;labelBackgroundColor=default;endArrow=classic;" edge="1" parent="1" source="PdMRBuFNjOPwppV06eXI-16" target="PdMRBuFNjOPwppV06eXI-20">
          <mxGeometry relative="1" as="geometry" />
        </mxCell>
        <mxCell id="PdMRBuFNjOPwppV06eXI-16" value="2.1" style="verticalLabelPosition=bottom;verticalAlign=top;html=1;strokeWidth=3;shape=mxgraph.flowchart.on-page_reference;plain-blue;gradientColor=none;fillColor=#2F4D5D;strokeColor=#CCE5FF;fontColor=#CCE5FF;" vertex="1" parent="1">
          <mxGeometry x="340" y="286" width="30" height="30" as="geometry" />
        </mxCell>
        <mxCell id="PdMRBuFNjOPwppV06eXI-18" style="edgeStyle=orthogonalEdgeStyle;curved=1;rounded=0;orthogonalLoop=1;jettySize=auto;html=1;exitX=1;exitY=0.5;exitDx=0;exitDy=0;exitPerimeter=0;entryX=0.5;entryY=0;entryDx=0;entryDy=0;entryPerimeter=0;strokeColor=#CCE5FF;strokeWidth=3;align=center;verticalAlign=middle;fontFamily=Helvetica;fontSize=12;fontColor=default;labelBackgroundColor=default;endArrow=classic;" edge="1" parent="1" source="PdMRBuFNjOPwppV06eXI-8" target="PdMRBuFNjOPwppV06eXI-16">
          <mxGeometry relative="1" as="geometry" />
        </mxCell>
        <mxCell id="PdMRBuFNjOPwppV06eXI-25" value="" style="edgeStyle=orthogonalEdgeStyle;curved=1;rounded=0;orthogonalLoop=1;jettySize=auto;html=1;strokeColor=#CCE5FF;strokeWidth=3;align=center;verticalAlign=middle;fontFamily=Helvetica;fontSize=12;fontColor=default;labelBackgroundColor=default;endArrow=classic;entryX=0.5;entryY=1;entryDx=0;entryDy=0;entryPerimeter=0;" edge="1" parent="1" source="PdMRBuFNjOPwppV06eXI-20" target="PdMRBuFNjOPwppV06eXI-26">
          <mxGeometry relative="1" as="geometry">
            <mxPoint x="534" y="256" as="targetPoint" />
          </mxGeometry>
        </mxCell>
        <mxCell id="PdMRBuFNjOPwppV06eXI-20" value="2.2" style="verticalLabelPosition=bottom;verticalAlign=top;html=1;strokeWidth=3;shape=mxgraph.flowchart.on-page_reference;plain-blue;gradientColor=none;fillColor=#2F4D5D;strokeColor=#CCE5FF;fontColor=#CCE5FF;" vertex="1" parent="1">
          <mxGeometry x="404" y="286" width="30" height="30" as="geometry" />
        </mxCell>
        <mxCell id="PdMRBuFNjOPwppV06eXI-26" value="3.0" style="verticalLabelPosition=top;verticalAlign=bottom;html=1;strokeWidth=3;shape=mxgraph.flowchart.on-page_reference;plain-blue;gradientColor=none;fillColor=#2F4D5D;strokeColor=#CCE5FF;labelPosition=center;align=center;fontColor=#CCE5FF;" vertex="1" parent="1">
          <mxGeometry x="404" y="203" width="30" height="30" as="geometry" />
        </mxCell>
        <mxCell id="PdMRBuFNjOPwppV06eXI-28" value="3.1" style="verticalLabelPosition=bottom;verticalAlign=top;html=1;strokeWidth=3;shape=mxgraph.flowchart.on-page_reference;plain-blue;gradientColor=none;fillColor=#2F4D5D;strokeColor=#CCE5FF;fontColor=#CCE5FF;" vertex="1" parent="1">
          <mxGeometry x="444" y="320" width="30" height="30" as="geometry" />
        </mxCell>
        <mxCell id="PdMRBuFNjOPwppV06eXI-29" value="3.2" style="verticalLabelPosition=bottom;verticalAlign=top;html=1;strokeWidth=3;shape=mxgraph.flowchart.on-page_reference;plain-blue;gradientColor=none;fillColor=#2F4D5D;strokeColor=#CCE5FF;fontColor=#CCE5FF;" vertex="1" parent="1">
          <mxGeometry x="504" y="320" width="30" height="30" as="geometry" />
        </mxCell>
        <mxCell id="PdMRBuFNjOPwppV06eXI-30" value="4.0" style="verticalLabelPosition=top;verticalAlign=bottom;html=1;strokeWidth=3;shape=mxgraph.flowchart.on-page_reference;plain-blue;gradientColor=none;fillColor=#2F4D5D;strokeColor=#CCE5FF;labelPosition=center;align=center;fontColor=#CCE5FF;" vertex="1" parent="1">
          <mxGeometry x="504" y="203" width="30" height="30" as="geometry" />
        </mxCell>
        <mxCell id="PdMRBuFNjOPwppV06eXI-31" style="edgeStyle=orthogonalEdgeStyle;curved=1;rounded=0;orthogonalLoop=1;jettySize=auto;html=1;exitX=1;exitY=0.5;exitDx=0;exitDy=0;exitPerimeter=0;entryX=0.5;entryY=0;entryDx=0;entryDy=0;entryPerimeter=0;strokeColor=#CCE5FF;strokeWidth=3;align=center;verticalAlign=middle;fontFamily=Helvetica;fontSize=12;fontColor=default;labelBackgroundColor=default;endArrow=classic;" edge="1" parent="1" source="PdMRBuFNjOPwppV06eXI-26" target="PdMRBuFNjOPwppV06eXI-28">
          <mxGeometry relative="1" as="geometry" />
        </mxCell>
        <mxCell id="PdMRBuFNjOPwppV06eXI-32" style="edgeStyle=orthogonalEdgeStyle;curved=1;rounded=0;orthogonalLoop=1;jettySize=auto;html=1;exitX=1;exitY=0.5;exitDx=0;exitDy=0;exitPerimeter=0;entryX=0;entryY=0.5;entryDx=0;entryDy=0;entryPerimeter=0;strokeColor=#CCE5FF;strokeWidth=3;align=center;verticalAlign=middle;fontFamily=Helvetica;fontSize=12;fontColor=default;labelBackgroundColor=default;endArrow=classic;" edge="1" parent="1" source="PdMRBuFNjOPwppV06eXI-28" target="PdMRBuFNjOPwppV06eXI-29">
          <mxGeometry relative="1" as="geometry" />
        </mxCell>
        <mxCell id="PdMRBuFNjOPwppV06eXI-34" value="stage2" style="text;html=1;strokeColor=none;fillColor=none;align=right;verticalAlign=middle;whiteSpace=wrap;overflow=hidden;fontSize=14;fontStyle=1;fontFamily=Courier New;imageAlign=right;fontColor=#CCE5FF;" vertex="1" parent="1">
          <mxGeometry x="20" y="280" width="70" height="42" as="geometry" />
        </mxCell>
        <mxCell id="PdMRBuFNjOPwppV06eXI-35" value="stage3" style="text;html=1;strokeColor=none;fillColor=none;align=right;verticalAlign=middle;whiteSpace=wrap;overflow=hidden;fontSize=14;fontStyle=1;fontFamily=Courier New;imageAlign=right;fontColor=#CCE5FF;" vertex="1" parent="1">
          <mxGeometry x="20" y="320" width="70" height="42" as="geometry" />
        </mxCell>
        <mxCell id="PdMRBuFNjOPwppV06eXI-36" value="stage4" style="text;html=1;strokeColor=none;fillColor=none;align=right;verticalAlign=middle;whiteSpace=wrap;overflow=hidden;fontSize=14;fontStyle=1;fontFamily=Courier New;imageAlign=right;fontColor=#CCE5FF;" vertex="1" parent="1">
          <mxGeometry x="20" y="362" width="70" height="42" as="geometry" />
        </mxCell>
        <mxCell id="PdMRBuFNjOPwppV06eXI-37" value="stage5" style="text;html=1;strokeColor=none;fillColor=none;align=right;verticalAlign=middle;whiteSpace=wrap;overflow=hidden;fontSize=14;fontStyle=1;fontFamily=Courier New;imageAlign=right;fontColor=#CCE5FF;" vertex="1" parent="1">
          <mxGeometry x="20" y="400" width="70" height="42" as="geometry" />
        </mxCell>
        <mxCell id="PdMRBuFNjOPwppV06eXI-38" value="stage6" style="text;html=1;strokeColor=none;fillColor=none;align=right;verticalAlign=middle;whiteSpace=wrap;overflow=hidden;fontSize=14;fontStyle=1;fontFamily=Courier New;imageAlign=right;fontColor=#CCE5FF;" vertex="1" parent="1">
          <mxGeometry x="20" y="440" width="70" height="42" as="geometry" />
        </mxCell>
        <mxCell id="PdMRBuFNjOPwppV06eXI-40" value="stage7" style="text;html=1;strokeColor=none;fillColor=none;align=right;verticalAlign=middle;whiteSpace=wrap;overflow=hidden;fontSize=14;fontStyle=1;fontFamily=Courier New;imageAlign=right;fontColor=#CCE5FF;" vertex="1" parent="1">
          <mxGeometry x="20" y="480" width="70" height="42" as="geometry" />
        </mxCell>
        <mxCell id="PdMRBuFNjOPwppV06eXI-41" value="stage8" style="text;html=1;strokeColor=none;fillColor=none;align=right;verticalAlign=middle;whiteSpace=wrap;overflow=hidden;fontSize=14;fontStyle=1;fontFamily=Courier New;imageAlign=right;fontColor=#CCE5FF;" vertex="1" parent="1">
          <mxGeometry x="20" y="520" width="70" height="42" as="geometry" />
        </mxCell>
        <mxCell id="PdMRBuFNjOPwppV06eXI-42" value="stage9" style="text;html=1;strokeColor=none;fillColor=none;align=right;verticalAlign=middle;whiteSpace=wrap;overflow=hidden;fontSize=14;fontStyle=1;fontFamily=Courier New;imageAlign=right;fontColor=#CCE5FF;" vertex="1" parent="1">
          <mxGeometry x="20" y="560" width="70" height="42" as="geometry" />
        </mxCell>
        <mxCell id="PdMRBuFNjOPwppV06eXI-51" value="" style="edgeStyle=orthogonalEdgeStyle;curved=1;rounded=0;orthogonalLoop=1;jettySize=auto;html=1;strokeColor=#CCE5FF;strokeWidth=3;align=center;verticalAlign=middle;fontFamily=Helvetica;fontSize=12;fontColor=default;labelBackgroundColor=default;endArrow=classic;" edge="1" parent="1" source="PdMRBuFNjOPwppV06eXI-47" target="PdMRBuFNjOPwppV06eXI-50">
          <mxGeometry relative="1" as="geometry" />
        </mxCell>
        <mxCell id="PdMRBuFNjOPwppV06eXI-47" value="4.1" style="verticalLabelPosition=bottom;verticalAlign=top;html=1;strokeWidth=3;shape=mxgraph.flowchart.on-page_reference;plain-blue;gradientColor=none;fillColor=#2F4D5D;strokeColor=#CCE5FF;fontColor=#CCE5FF;" vertex="1" parent="1">
          <mxGeometry x="554" y="364" width="30" height="30" as="geometry" />
        </mxCell>
        <mxCell id="PdMRBuFNjOPwppV06eXI-49" style="edgeStyle=orthogonalEdgeStyle;curved=1;rounded=0;orthogonalLoop=1;jettySize=auto;html=1;exitX=1;exitY=0.5;exitDx=0;exitDy=0;exitPerimeter=0;entryX=0.5;entryY=0;entryDx=0;entryDy=0;entryPerimeter=0;strokeColor=#CCE5FF;strokeWidth=3;align=center;verticalAlign=middle;fontFamily=Helvetica;fontSize=12;fontColor=default;labelBackgroundColor=default;endArrow=classic;" edge="1" parent="1" source="PdMRBuFNjOPwppV06eXI-30" target="PdMRBuFNjOPwppV06eXI-47">
          <mxGeometry relative="1" as="geometry" />
        </mxCell>
        <mxCell id="PdMRBuFNjOPwppV06eXI-50" value="4.2" style="verticalLabelPosition=bottom;verticalAlign=top;html=1;strokeWidth=3;shape=mxgraph.flowchart.on-page_reference;plain-blue;gradientColor=none;fillColor=#2F4D5D;strokeColor=#CCE5FF;fontColor=#CCE5FF;" vertex="1" parent="1">
          <mxGeometry x="618" y="364" width="30" height="30" as="geometry" />
        </mxCell>
        <mxCell id="PdMRBuFNjOPwppV06eXI-55" value="" style="edgeStyle=orthogonalEdgeStyle;curved=1;rounded=0;orthogonalLoop=1;jettySize=auto;html=1;strokeColor=#CCE5FF;strokeWidth=3;align=center;verticalAlign=middle;fontFamily=Helvetica;fontSize=12;fontColor=default;labelBackgroundColor=default;endArrow=classic;" edge="1" parent="1" source="PdMRBuFNjOPwppV06eXI-52" target="PdMRBuFNjOPwppV06eXI-54">
          <mxGeometry relative="1" as="geometry" />
        </mxCell>
        <mxCell id="PdMRBuFNjOPwppV06eXI-52" value="4.3" style="verticalLabelPosition=bottom;verticalAlign=top;html=1;strokeWidth=3;shape=mxgraph.flowchart.on-page_reference;plain-blue;gradientColor=none;fillColor=#2F4D5D;strokeColor=#CCE5FF;fontColor=#CCE5FF;" vertex="1" parent="1">
          <mxGeometry x="678" y="364" width="30" height="30" as="geometry" />
        </mxCell>
        <mxCell id="PdMRBuFNjOPwppV06eXI-54" value="4.4" style="verticalLabelPosition=bottom;verticalAlign=top;html=1;strokeWidth=3;shape=mxgraph.flowchart.on-page_reference;plain-blue;gradientColor=none;fillColor=#2F4D5D;strokeColor=#CCE5FF;fontColor=#CCE5FF;" vertex="1" parent="1">
          <mxGeometry x="738" y="364" width="30" height="30" as="geometry" />
        </mxCell>
        <mxCell id="PdMRBuFNjOPwppV06eXI-56" style="edgeStyle=orthogonalEdgeStyle;curved=1;rounded=0;orthogonalLoop=1;jettySize=auto;html=1;exitX=1;exitY=0.5;exitDx=0;exitDy=0;exitPerimeter=0;entryX=0;entryY=0.5;entryDx=0;entryDy=0;entryPerimeter=0;strokeColor=#CCE5FF;strokeWidth=3;align=center;verticalAlign=middle;fontFamily=Helvetica;fontSize=12;fontColor=default;labelBackgroundColor=default;endArrow=classic;" edge="1" parent="1" source="PdMRBuFNjOPwppV06eXI-50" target="PdMRBuFNjOPwppV06eXI-52">
          <mxGeometry relative="1" as="geometry" />
        </mxCell>
        <mxCell id="PdMRBuFNjOPwppV06eXI-57" style="edgeStyle=orthogonalEdgeStyle;curved=1;rounded=0;orthogonalLoop=1;jettySize=auto;html=1;exitX=1;exitY=0.5;exitDx=0;exitDy=0;exitPerimeter=0;entryX=0;entryY=0.5;entryDx=0;entryDy=0;entryPerimeter=0;strokeColor=#CCE5FF;strokeWidth=3;align=center;verticalAlign=middle;fontFamily=Helvetica;fontSize=12;fontColor=default;labelBackgroundColor=default;endArrow=none;endFill=0;" edge="1" parent="1" source="PdMRBuFNjOPwppV06eXI-8" target="PdMRBuFNjOPwppV06eXI-26">
          <mxGeometry relative="1" as="geometry" />
        </mxCell>
        <mxCell id="PdMRBuFNjOPwppV06eXI-58" style="edgeStyle=orthogonalEdgeStyle;curved=1;rounded=0;orthogonalLoop=1;jettySize=auto;html=1;exitX=1;exitY=0.5;exitDx=0;exitDy=0;exitPerimeter=0;entryX=0;entryY=0.5;entryDx=0;entryDy=0;entryPerimeter=0;strokeColor=#CCE5FF;strokeWidth=3;align=center;verticalAlign=middle;fontFamily=Helvetica;fontSize=12;fontColor=default;labelBackgroundColor=default;endArrow=none;endFill=0;" edge="1" parent="1" source="PdMRBuFNjOPwppV06eXI-26" target="PdMRBuFNjOPwppV06eXI-30">
          <mxGeometry relative="1" as="geometry" />
        </mxCell>
        <mxCell id="PdMRBuFNjOPwppV06eXI-74" style="edgeStyle=orthogonalEdgeStyle;curved=1;rounded=0;orthogonalLoop=1;jettySize=auto;html=1;exitX=1;exitY=0.5;exitDx=0;exitDy=0;exitPerimeter=0;strokeColor=#CCE5FF;strokeWidth=3;align=center;verticalAlign=middle;fontFamily=Helvetica;fontSize=12;fontColor=default;labelBackgroundColor=default;endArrow=none;endFill=0;entryX=0;entryY=0.5;entryDx=0;entryDy=0;entryPerimeter=0;" edge="1" parent="1" source="PdMRBuFNjOPwppV06eXI-60" target="PdMRBuFNjOPwppV06eXI-77">
          <mxGeometry relative="1" as="geometry">
            <mxPoint x="990" y="218" as="targetPoint" />
          </mxGeometry>
        </mxCell>
        <mxCell id="PdMRBuFNjOPwppV06eXI-60" value="5.0" style="verticalLabelPosition=top;verticalAlign=bottom;html=1;strokeWidth=3;shape=mxgraph.flowchart.on-page_reference;plain-blue;gradientColor=none;fillColor=#2F4D5D;strokeColor=#CCE5FF;labelPosition=center;align=center;fontColor=#CCE5FF;" vertex="1" parent="1">
          <mxGeometry x="738" y="203" width="30" height="30" as="geometry" />
        </mxCell>
        <mxCell id="PdMRBuFNjOPwppV06eXI-61" style="edgeStyle=orthogonalEdgeStyle;curved=1;rounded=0;orthogonalLoop=1;jettySize=auto;html=1;exitX=1;exitY=0.5;exitDx=0;exitDy=0;exitPerimeter=0;entryX=0;entryY=0.5;entryDx=0;entryDy=0;entryPerimeter=0;strokeColor=#CCE5FF;strokeWidth=3;align=center;verticalAlign=middle;fontFamily=Helvetica;fontSize=12;fontColor=default;labelBackgroundColor=default;endArrow=none;endFill=0;" edge="1" parent="1" source="PdMRBuFNjOPwppV06eXI-30" target="PdMRBuFNjOPwppV06eXI-60">
          <mxGeometry relative="1" as="geometry" />
        </mxCell>
        <mxCell id="PdMRBuFNjOPwppV06eXI-62" style="edgeStyle=orthogonalEdgeStyle;curved=1;rounded=0;orthogonalLoop=1;jettySize=auto;html=1;exitX=0.5;exitY=0;exitDx=0;exitDy=0;exitPerimeter=0;entryX=0.5;entryY=1;entryDx=0;entryDy=0;entryPerimeter=0;strokeColor=#CCE5FF;strokeWidth=3;align=center;verticalAlign=middle;fontFamily=Helvetica;fontSize=12;fontColor=default;labelBackgroundColor=default;endArrow=classic;" edge="1" parent="1" source="PdMRBuFNjOPwppV06eXI-54" target="PdMRBuFNjOPwppV06eXI-60">
          <mxGeometry relative="1" as="geometry" />
        </mxCell>
        <mxCell id="PdMRBuFNjOPwppV06eXI-76" style="edgeStyle=orthogonalEdgeStyle;curved=1;rounded=0;orthogonalLoop=1;jettySize=auto;html=1;exitX=1;exitY=0.5;exitDx=0;exitDy=0;exitPerimeter=0;strokeColor=#CCE5FF;strokeWidth=3;align=center;verticalAlign=middle;fontFamily=Helvetica;fontSize=12;fontColor=default;labelBackgroundColor=default;endArrow=classic;entryX=0.5;entryY=1;entryDx=0;entryDy=0;entryPerimeter=0;" edge="1" parent="1" source="PdMRBuFNjOPwppV06eXI-64" target="PdMRBuFNjOPwppV06eXI-77">
          <mxGeometry relative="1" as="geometry">
            <mxPoint x="1010" y="240" as="targetPoint" />
            <Array as="points">
              <mxPoint x="830" y="420" />
              <mxPoint x="1025" y="420" />
            </Array>
          </mxGeometry>
        </mxCell>
        <mxCell id="PdMRBuFNjOPwppV06eXI-64" value="5.1" style="verticalLabelPosition=middle;verticalAlign=middle;html=1;strokeWidth=3;shape=mxgraph.flowchart.on-page_reference;plain-blue;gradientColor=none;fillColor=#2F4D5D;strokeColor=#CCE5FF;labelPosition=left;align=right;fontColor=#CCE5FF;" vertex="1" parent="1">
          <mxGeometry x="800" y="404" width="30" height="30" as="geometry" />
        </mxCell>
        <mxCell id="PdMRBuFNjOPwppV06eXI-65" style="edgeStyle=orthogonalEdgeStyle;curved=1;rounded=0;orthogonalLoop=1;jettySize=auto;html=1;exitX=1;exitY=0.5;exitDx=0;exitDy=0;exitPerimeter=0;entryX=0.5;entryY=0;entryDx=0;entryDy=0;entryPerimeter=0;strokeColor=#CCE5FF;strokeWidth=3;align=center;verticalAlign=middle;fontFamily=Helvetica;fontSize=12;fontColor=default;labelBackgroundColor=default;endArrow=classic;" edge="1" parent="1" source="PdMRBuFNjOPwppV06eXI-60" target="PdMRBuFNjOPwppV06eXI-64">
          <mxGeometry relative="1" as="geometry" />
        </mxCell>
        <mxCell id="PdMRBuFNjOPwppV06eXI-66" value="6.0" style="verticalLabelPosition=bottom;verticalAlign=top;html=1;strokeWidth=3;shape=mxgraph.flowchart.on-page_reference;plain-blue;gradientColor=none;fillColor=#2F4D5D;strokeColor=#CCE5FF;fontColor=#CCE5FF;" vertex="1" parent="1">
          <mxGeometry x="850" y="442" width="30" height="30" as="geometry" />
        </mxCell>
        <mxCell id="PdMRBuFNjOPwppV06eXI-69" style="edgeStyle=orthogonalEdgeStyle;curved=1;rounded=0;orthogonalLoop=1;jettySize=auto;html=1;exitX=0.5;exitY=1;exitDx=0;exitDy=0;exitPerimeter=0;entryX=0;entryY=0.5;entryDx=0;entryDy=0;entryPerimeter=0;strokeColor=#CCE5FF;strokeWidth=3;align=center;verticalAlign=middle;fontFamily=Helvetica;fontSize=12;fontColor=default;labelBackgroundColor=default;endArrow=classic;" edge="1" parent="1" source="PdMRBuFNjOPwppV06eXI-64" target="PdMRBuFNjOPwppV06eXI-66">
          <mxGeometry relative="1" as="geometry" />
        </mxCell>
        <mxCell id="PdMRBuFNjOPwppV06eXI-70" value="6.1" style="verticalLabelPosition=bottom;verticalAlign=top;html=1;strokeWidth=3;shape=mxgraph.flowchart.on-page_reference;plain-blue;gradientColor=none;fillColor=#2F4D5D;strokeColor=#CCE5FF;fontColor=#CCE5FF;" vertex="1" parent="1">
          <mxGeometry x="910" y="442" width="30" height="30" as="geometry" />
        </mxCell>
        <mxCell id="PdMRBuFNjOPwppV06eXI-71" style="edgeStyle=orthogonalEdgeStyle;curved=1;rounded=0;orthogonalLoop=1;jettySize=auto;html=1;exitX=1;exitY=0.5;exitDx=0;exitDy=0;exitPerimeter=0;entryX=0;entryY=0.5;entryDx=0;entryDy=0;entryPerimeter=0;strokeColor=#CCE5FF;strokeWidth=3;align=center;verticalAlign=middle;fontFamily=Helvetica;fontSize=12;fontColor=default;labelBackgroundColor=default;endArrow=classic;" edge="1" parent="1" source="PdMRBuFNjOPwppV06eXI-66" target="PdMRBuFNjOPwppV06eXI-70">
          <mxGeometry relative="1" as="geometry" />
        </mxCell>
        <mxCell id="PdMRBuFNjOPwppV06eXI-80" style="edgeStyle=orthogonalEdgeStyle;curved=1;rounded=0;orthogonalLoop=1;jettySize=auto;html=1;exitX=1;exitY=0.5;exitDx=0;exitDy=0;exitPerimeter=0;strokeColor=#CCE5FF;strokeWidth=3;align=center;verticalAlign=middle;fontFamily=Helvetica;fontSize=12;fontColor=default;labelBackgroundColor=default;endArrow=classic;entryX=0.5;entryY=1;entryDx=0;entryDy=0;entryPerimeter=0;" edge="1" parent="1" source="PdMRBuFNjOPwppV06eXI-72" target="PdMRBuFNjOPwppV06eXI-81">
          <mxGeometry relative="1" as="geometry">
            <mxPoint x="1090" y="230" as="targetPoint" />
          </mxGeometry>
        </mxCell>
        <mxCell id="PdMRBuFNjOPwppV06eXI-72" value="6.2" style="verticalLabelPosition=bottom;verticalAlign=top;html=1;strokeWidth=3;shape=mxgraph.flowchart.on-page_reference;plain-blue;gradientColor=none;fillColor=#2F4D5D;strokeColor=#CCE5FF;fontColor=#CCE5FF;" vertex="1" parent="1">
          <mxGeometry x="970" y="442" width="30" height="30" as="geometry" />
        </mxCell>
        <mxCell id="PdMRBuFNjOPwppV06eXI-73" style="edgeStyle=orthogonalEdgeStyle;curved=1;rounded=0;orthogonalLoop=1;jettySize=auto;html=1;exitX=1;exitY=0.5;exitDx=0;exitDy=0;exitPerimeter=0;entryX=0;entryY=0.5;entryDx=0;entryDy=0;entryPerimeter=0;strokeColor=#CCE5FF;strokeWidth=3;align=center;verticalAlign=middle;fontFamily=Helvetica;fontSize=12;fontColor=default;labelBackgroundColor=default;endArrow=classic;" edge="1" parent="1" source="PdMRBuFNjOPwppV06eXI-70" target="PdMRBuFNjOPwppV06eXI-72">
          <mxGeometry relative="1" as="geometry" />
        </mxCell>
        <mxCell id="PdMRBuFNjOPwppV06eXI-82" value="" style="edgeStyle=orthogonalEdgeStyle;curved=1;rounded=0;orthogonalLoop=1;jettySize=auto;html=1;strokeColor=#CCE5FF;strokeWidth=3;align=center;verticalAlign=middle;fontFamily=Helvetica;fontSize=12;fontColor=default;labelBackgroundColor=default;endArrow=none;endFill=0;" edge="1" parent="1" source="PdMRBuFNjOPwppV06eXI-77" target="PdMRBuFNjOPwppV06eXI-81">
          <mxGeometry relative="1" as="geometry" />
        </mxCell>
        <mxCell id="PdMRBuFNjOPwppV06eXI-77" value="6.3" style="verticalLabelPosition=top;verticalAlign=bottom;html=1;strokeWidth=3;shape=mxgraph.flowchart.on-page_reference;plain-blue;gradientColor=none;fillColor=#2F4D5D;strokeColor=#CCE5FF;labelPosition=center;align=center;fontColor=#CCE5FF;" vertex="1" parent="1">
          <mxGeometry x="1010" y="203" width="30" height="30" as="geometry" />
        </mxCell>
        <mxCell id="PdMRBuFNjOPwppV06eXI-87" style="edgeStyle=orthogonalEdgeStyle;curved=1;rounded=0;orthogonalLoop=1;jettySize=auto;html=1;exitX=1;exitY=0.5;exitDx=0;exitDy=0;exitPerimeter=0;strokeColor=#CCE5FF;strokeWidth=3;align=center;verticalAlign=middle;fontFamily=Helvetica;fontSize=12;fontColor=default;labelBackgroundColor=default;endArrow=none;endFill=0;entryX=0;entryY=0.5;entryDx=0;entryDy=0;entryPerimeter=0;" edge="1" parent="1" source="PdMRBuFNjOPwppV06eXI-81" target="PdMRBuFNjOPwppV06eXI-88">
          <mxGeometry relative="1" as="geometry">
            <mxPoint x="1290" y="218" as="targetPoint" />
          </mxGeometry>
        </mxCell>
        <mxCell id="PdMRBuFNjOPwppV06eXI-81" value="7.0" style="verticalLabelPosition=top;verticalAlign=bottom;html=1;strokeWidth=3;shape=mxgraph.flowchart.on-page_reference;plain-blue;gradientColor=none;fillColor=#2F4D5D;strokeColor=#CCE5FF;labelPosition=center;align=center;fontColor=#CCE5FF;" vertex="1" parent="1">
          <mxGeometry x="1070" y="203" width="30" height="30" as="geometry" />
        </mxCell>
        <mxCell id="PdMRBuFNjOPwppV06eXI-86" value="" style="edgeStyle=orthogonalEdgeStyle;curved=1;rounded=0;orthogonalLoop=1;jettySize=auto;html=1;strokeColor=#CCE5FF;strokeWidth=3;align=center;verticalAlign=middle;fontFamily=Helvetica;fontSize=12;fontColor=default;labelBackgroundColor=default;endArrow=classic;" edge="1" parent="1" source="PdMRBuFNjOPwppV06eXI-83" target="PdMRBuFNjOPwppV06eXI-85">
          <mxGeometry relative="1" as="geometry" />
        </mxCell>
        <mxCell id="PdMRBuFNjOPwppV06eXI-83" value="7.1" style="verticalLabelPosition=bottom;verticalAlign=top;html=1;strokeWidth=3;shape=mxgraph.flowchart.on-page_reference;plain-blue;gradientColor=none;fillColor=#2F4D5D;strokeColor=#CCE5FF;fontColor=#CCE5FF;" vertex="1" parent="1">
          <mxGeometry x="1110" y="480" width="30" height="30" as="geometry" />
        </mxCell>
        <mxCell id="PdMRBuFNjOPwppV06eXI-84" style="edgeStyle=orthogonalEdgeStyle;curved=1;rounded=0;orthogonalLoop=1;jettySize=auto;html=1;exitX=1;exitY=0.5;exitDx=0;exitDy=0;exitPerimeter=0;entryX=0.5;entryY=0;entryDx=0;entryDy=0;entryPerimeter=0;strokeColor=#CCE5FF;strokeWidth=3;align=center;verticalAlign=middle;fontFamily=Helvetica;fontSize=12;fontColor=default;labelBackgroundColor=default;endArrow=classic;" edge="1" parent="1" source="PdMRBuFNjOPwppV06eXI-81" target="PdMRBuFNjOPwppV06eXI-83">
          <mxGeometry relative="1" as="geometry">
            <Array as="points">
              <mxPoint x="1125" y="218" />
            </Array>
          </mxGeometry>
        </mxCell>
        <mxCell id="PdMRBuFNjOPwppV06eXI-85" value="7.2" style="verticalLabelPosition=bottom;verticalAlign=top;html=1;strokeWidth=3;shape=mxgraph.flowchart.on-page_reference;plain-blue;gradientColor=none;fillColor=#2F4D5D;strokeColor=#CCE5FF;fontColor=#CCE5FF;" vertex="1" parent="1">
          <mxGeometry x="1170" y="480" width="30" height="30" as="geometry" />
        </mxCell>
        <mxCell id="PdMRBuFNjOPwppV06eXI-88" value="8.0" style="verticalLabelPosition=top;verticalAlign=bottom;html=1;strokeWidth=3;shape=mxgraph.flowchart.on-page_reference;plain-blue;gradientColor=none;fillColor=#2F4D5D;strokeColor=#CCE5FF;labelPosition=center;align=center;fontColor=#CCE5FF;" vertex="1" parent="1">
          <mxGeometry x="1170" y="203" width="30" height="30" as="geometry" />
        </mxCell>
        <mxCell id="PdMRBuFNjOPwppV06eXI-89" style="edgeStyle=orthogonalEdgeStyle;curved=1;rounded=0;orthogonalLoop=1;jettySize=auto;html=1;exitX=0.5;exitY=0;exitDx=0;exitDy=0;exitPerimeter=0;entryX=0.5;entryY=1;entryDx=0;entryDy=0;entryPerimeter=0;strokeColor=#CCE5FF;strokeWidth=3;align=center;verticalAlign=middle;fontFamily=Helvetica;fontSize=12;fontColor=default;labelBackgroundColor=default;endArrow=classic;" edge="1" parent="1" source="PdMRBuFNjOPwppV06eXI-85" target="PdMRBuFNjOPwppV06eXI-88">
          <mxGeometry relative="1" as="geometry" />
        </mxCell>
        <mxCell id="PdMRBuFNjOPwppV06eXI-95" style="edgeStyle=orthogonalEdgeStyle;curved=1;rounded=0;orthogonalLoop=1;jettySize=auto;html=1;exitX=1;exitY=0.5;exitDx=0;exitDy=0;exitPerimeter=0;strokeColor=#CCE5FF;strokeWidth=3;align=center;verticalAlign=middle;fontFamily=Helvetica;fontSize=12;fontColor=default;labelBackgroundColor=default;endArrow=classic;" edge="1" parent="1" source="PdMRBuFNjOPwppV06eXI-90" target="PdMRBuFNjOPwppV06eXI-91">
          <mxGeometry relative="1" as="geometry" />
        </mxCell>
        <mxCell id="PdMRBuFNjOPwppV06eXI-90" value="8.1" style="verticalLabelPosition=bottom;verticalAlign=top;html=1;strokeWidth=3;shape=mxgraph.flowchart.on-page_reference;plain-blue;gradientColor=none;fillColor=#2F4D5D;strokeColor=#CCE5FF;fontColor=#CCE5FF;" vertex="1" parent="1">
          <mxGeometry x="1230" y="526" width="30" height="30" as="geometry" />
        </mxCell>
        <mxCell id="PdMRBuFNjOPwppV06eXI-91" value="8.2" style="verticalLabelPosition=bottom;verticalAlign=top;html=1;strokeWidth=3;shape=mxgraph.flowchart.on-page_reference;plain-blue;gradientColor=none;fillColor=#2F4D5D;strokeColor=#CCE5FF;fontColor=#CCE5FF;" vertex="1" parent="1">
          <mxGeometry x="1290" y="526" width="30" height="30" as="geometry" />
        </mxCell>
        <mxCell id="PdMRBuFNjOPwppV06eXI-92" value="8.3" style="verticalLabelPosition=bottom;verticalAlign=top;html=1;strokeWidth=3;shape=mxgraph.flowchart.on-page_reference;plain-blue;gradientColor=none;fillColor=#2F4D5D;strokeColor=#CCE5FF;fontColor=#CCE5FF;" vertex="1" parent="1">
          <mxGeometry x="1350" y="526" width="30" height="30" as="geometry" />
        </mxCell>
        <mxCell id="PdMRBuFNjOPwppV06eXI-100" style="edgeStyle=orthogonalEdgeStyle;curved=1;rounded=0;orthogonalLoop=1;jettySize=auto;html=1;exitX=0.5;exitY=0;exitDx=0;exitDy=0;exitPerimeter=0;strokeColor=#CCE5FF;strokeWidth=3;align=center;verticalAlign=middle;fontFamily=Helvetica;fontSize=12;fontColor=default;labelBackgroundColor=default;endArrow=classic;entryX=0.5;entryY=1;entryDx=0;entryDy=0;entryPerimeter=0;" edge="1" parent="1" source="PdMRBuFNjOPwppV06eXI-93" target="PdMRBuFNjOPwppV06eXI-101">
          <mxGeometry relative="1" as="geometry">
            <mxPoint x="1425" y="260" as="targetPoint" />
          </mxGeometry>
        </mxCell>
        <mxCell id="PdMRBuFNjOPwppV06eXI-93" value="8.4" style="verticalLabelPosition=bottom;verticalAlign=top;html=1;strokeWidth=3;shape=mxgraph.flowchart.on-page_reference;plain-blue;gradientColor=none;fillColor=#2F4D5D;strokeColor=#CCE5FF;fontColor=#CCE5FF;" vertex="1" parent="1">
          <mxGeometry x="1410" y="526" width="30" height="30" as="geometry" />
        </mxCell>
        <mxCell id="PdMRBuFNjOPwppV06eXI-94" style="edgeStyle=orthogonalEdgeStyle;curved=1;rounded=0;orthogonalLoop=1;jettySize=auto;html=1;exitX=1;exitY=0.5;exitDx=0;exitDy=0;exitPerimeter=0;entryX=0.5;entryY=0;entryDx=0;entryDy=0;entryPerimeter=0;strokeColor=#CCE5FF;strokeWidth=3;align=center;verticalAlign=middle;fontFamily=Helvetica;fontSize=12;fontColor=default;labelBackgroundColor=default;endArrow=classic;" edge="1" parent="1" source="PdMRBuFNjOPwppV06eXI-88" target="PdMRBuFNjOPwppV06eXI-90">
          <mxGeometry relative="1" as="geometry" />
        </mxCell>
        <mxCell id="PdMRBuFNjOPwppV06eXI-96" style="edgeStyle=orthogonalEdgeStyle;curved=1;rounded=0;orthogonalLoop=1;jettySize=auto;html=1;exitX=1;exitY=0.5;exitDx=0;exitDy=0;exitPerimeter=0;entryX=0;entryY=0.5;entryDx=0;entryDy=0;entryPerimeter=0;strokeColor=#CCE5FF;strokeWidth=3;align=center;verticalAlign=middle;fontFamily=Helvetica;fontSize=12;fontColor=default;labelBackgroundColor=default;endArrow=classic;" edge="1" parent="1" source="PdMRBuFNjOPwppV06eXI-91" target="PdMRBuFNjOPwppV06eXI-92">
          <mxGeometry relative="1" as="geometry" />
        </mxCell>
        <mxCell id="PdMRBuFNjOPwppV06eXI-97" style="edgeStyle=orthogonalEdgeStyle;curved=1;rounded=0;orthogonalLoop=1;jettySize=auto;html=1;exitX=1;exitY=0.5;exitDx=0;exitDy=0;exitPerimeter=0;entryX=0;entryY=0.5;entryDx=0;entryDy=0;entryPerimeter=0;strokeColor=#CCE5FF;strokeWidth=3;align=center;verticalAlign=middle;fontFamily=Helvetica;fontSize=12;fontColor=default;labelBackgroundColor=default;endArrow=classic;" edge="1" parent="1" source="PdMRBuFNjOPwppV06eXI-92" target="PdMRBuFNjOPwppV06eXI-93">
          <mxGeometry relative="1" as="geometry" />
        </mxCell>
        <mxCell id="PdMRBuFNjOPwppV06eXI-99" style="edgeStyle=orthogonalEdgeStyle;curved=1;rounded=0;orthogonalLoop=1;jettySize=auto;html=1;exitX=0.5;exitY=0;exitDx=0;exitDy=0;exitPerimeter=0;entryX=0.5;entryY=1;entryDx=0;entryDy=0;entryPerimeter=0;strokeColor=#CCE5FF;strokeWidth=3;align=center;verticalAlign=middle;fontFamily=Helvetica;fontSize=12;fontColor=default;labelBackgroundColor=default;endArrow=classic;" edge="1" parent="1" source="PdMRBuFNjOPwppV06eXI-29" target="PdMRBuFNjOPwppV06eXI-30">
          <mxGeometry relative="1" as="geometry" />
        </mxCell>
        <mxCell id="PdMRBuFNjOPwppV06eXI-102" value="" style="edgeStyle=orthogonalEdgeStyle;curved=1;rounded=0;orthogonalLoop=1;jettySize=auto;html=1;exitX=1;exitY=0.5;exitDx=0;exitDy=0;exitPerimeter=0;strokeColor=#CCE5FF;strokeWidth=3;align=center;verticalAlign=middle;fontFamily=Helvetica;fontSize=12;fontColor=default;labelBackgroundColor=default;endArrow=none;endFill=0;" edge="1" parent="1" source="PdMRBuFNjOPwppV06eXI-88" target="PdMRBuFNjOPwppV06eXI-101">
          <mxGeometry relative="1" as="geometry">
            <mxPoint x="1440" y="217.9999999999999" as="targetPoint" />
            <mxPoint x="1200" y="218" as="sourcePoint" />
          </mxGeometry>
        </mxCell>
        <mxCell id="PdMRBuFNjOPwppV06eXI-101" value="9.0" style="verticalLabelPosition=top;verticalAlign=bottom;html=1;strokeWidth=3;shape=mxgraph.flowchart.on-page_reference;plain-blue;gradientColor=none;fillColor=#2F4D5D;strokeColor=#CCE5FF;labelPosition=center;align=center;fontColor=#CCE5FF;" vertex="1" parent="1">
          <mxGeometry x="1410" y="203" width="30" height="30" as="geometry" />
        </mxCell>
        <mxCell id="PdMRBuFNjOPwppV06eXI-108" style="edgeStyle=orthogonalEdgeStyle;curved=1;rounded=0;orthogonalLoop=1;jettySize=auto;html=1;exitX=1;exitY=0.5;exitDx=0;exitDy=0;exitPerimeter=0;strokeColor=#CCE5FF;strokeWidth=3;align=center;verticalAlign=middle;fontFamily=Helvetica;fontSize=12;fontColor=default;labelBackgroundColor=default;endArrow=classic;" edge="1" parent="1" source="PdMRBuFNjOPwppV06eXI-103" target="PdMRBuFNjOPwppV06eXI-104">
          <mxGeometry relative="1" as="geometry" />
        </mxCell>
        <mxCell id="PdMRBuFNjOPwppV06eXI-103" value="9.1" style="verticalLabelPosition=bottom;verticalAlign=top;html=1;strokeWidth=3;shape=mxgraph.flowchart.on-page_reference;plain-blue;gradientColor=none;fillColor=#2F4D5D;strokeColor=#CCE5FF;fontColor=#CCE5FF;" vertex="1" parent="1">
          <mxGeometry x="1470" y="562" width="30" height="30" as="geometry" />
        </mxCell>
        <mxCell id="PdMRBuFNjOPwppV06eXI-104" value="9.2" style="verticalLabelPosition=bottom;verticalAlign=top;html=1;strokeWidth=3;shape=mxgraph.flowchart.on-page_reference;plain-blue;gradientColor=none;fillColor=#2F4D5D;strokeColor=#CCE5FF;fontColor=#CCE5FF;" vertex="1" parent="1">
          <mxGeometry x="1527" y="562" width="30" height="30" as="geometry" />
        </mxCell>
        <mxCell id="PdMRBuFNjOPwppV06eXI-105" value="9.3" style="verticalLabelPosition=bottom;verticalAlign=top;html=1;strokeWidth=3;shape=mxgraph.flowchart.on-page_reference;plain-blue;gradientColor=none;fillColor=#2F4D5D;strokeColor=#CCE5FF;fontColor=#CCE5FF;" vertex="1" parent="1">
          <mxGeometry x="1583" y="562" width="30" height="30" as="geometry" />
        </mxCell>
        <mxCell id="PdMRBuFNjOPwppV06eXI-111" style="edgeStyle=orthogonalEdgeStyle;curved=1;rounded=0;orthogonalLoop=1;jettySize=auto;html=1;exitX=0.5;exitY=0;exitDx=0;exitDy=0;exitPerimeter=0;strokeColor=#CCE5FF;strokeWidth=3;align=center;verticalAlign=middle;fontFamily=Helvetica;fontSize=12;fontColor=default;labelBackgroundColor=default;endArrow=classic;entryX=0.5;entryY=1;entryDx=0;entryDy=0;entryPerimeter=0;" edge="1" parent="1" source="PdMRBuFNjOPwppV06eXI-106" target="PdMRBuFNjOPwppV06eXI-112">
          <mxGeometry relative="1" as="geometry">
            <mxPoint x="1680" y="300" as="targetPoint" />
          </mxGeometry>
        </mxCell>
        <mxCell id="PdMRBuFNjOPwppV06eXI-106" value="9.4" style="verticalLabelPosition=bottom;verticalAlign=top;html=1;strokeWidth=3;shape=mxgraph.flowchart.on-page_reference;plain-blue;gradientColor=none;fillColor=#2F4D5D;strokeColor=#CCE5FF;fontColor=#CCE5FF;" vertex="1" parent="1">
          <mxGeometry x="1640" y="562" width="30" height="30" as="geometry" />
        </mxCell>
        <mxCell id="PdMRBuFNjOPwppV06eXI-107" style="edgeStyle=orthogonalEdgeStyle;curved=1;rounded=0;orthogonalLoop=1;jettySize=auto;html=1;exitX=1;exitY=0.5;exitDx=0;exitDy=0;exitPerimeter=0;entryX=0.5;entryY=0;entryDx=0;entryDy=0;entryPerimeter=0;strokeColor=#CCE5FF;strokeWidth=3;align=center;verticalAlign=middle;fontFamily=Helvetica;fontSize=12;fontColor=default;labelBackgroundColor=default;endArrow=classic;" edge="1" parent="1" source="PdMRBuFNjOPwppV06eXI-101" target="PdMRBuFNjOPwppV06eXI-103">
          <mxGeometry relative="1" as="geometry" />
        </mxCell>
        <mxCell id="PdMRBuFNjOPwppV06eXI-109" style="edgeStyle=orthogonalEdgeStyle;curved=1;rounded=0;orthogonalLoop=1;jettySize=auto;html=1;exitX=1;exitY=0.5;exitDx=0;exitDy=0;exitPerimeter=0;entryX=0;entryY=0.5;entryDx=0;entryDy=0;entryPerimeter=0;strokeColor=#CCE5FF;strokeWidth=3;align=center;verticalAlign=middle;fontFamily=Helvetica;fontSize=12;fontColor=default;labelBackgroundColor=default;endArrow=classic;" edge="1" parent="1" source="PdMRBuFNjOPwppV06eXI-104" target="PdMRBuFNjOPwppV06eXI-105">
          <mxGeometry relative="1" as="geometry" />
        </mxCell>
        <mxCell id="PdMRBuFNjOPwppV06eXI-110" style="edgeStyle=orthogonalEdgeStyle;curved=1;rounded=0;orthogonalLoop=1;jettySize=auto;html=1;exitX=1;exitY=0.5;exitDx=0;exitDy=0;exitPerimeter=0;entryX=0;entryY=0.5;entryDx=0;entryDy=0;entryPerimeter=0;strokeColor=#CCE5FF;strokeWidth=3;align=center;verticalAlign=middle;fontFamily=Helvetica;fontSize=12;fontColor=default;labelBackgroundColor=default;endArrow=classic;" edge="1" parent="1" source="PdMRBuFNjOPwppV06eXI-105" target="PdMRBuFNjOPwppV06eXI-106">
          <mxGeometry relative="1" as="geometry" />
        </mxCell>
        <mxCell id="PdMRBuFNjOPwppV06eXI-112" value="10.0" style="verticalLabelPosition=top;verticalAlign=bottom;html=1;strokeWidth=3;shape=mxgraph.flowchart.on-page_reference;plain-blue;gradientColor=none;fillColor=#2F4D5D;strokeColor=#CCE5FF;labelPosition=center;align=center;fontColor=#CCE5FF;" vertex="1" parent="1">
          <mxGeometry x="1640" y="203" width="30" height="30" as="geometry" />
        </mxCell>
        <mxCell id="PdMRBuFNjOPwppV06eXI-113" style="edgeStyle=orthogonalEdgeStyle;curved=1;rounded=0;orthogonalLoop=1;jettySize=auto;html=1;exitX=1;exitY=0.5;exitDx=0;exitDy=0;exitPerimeter=0;entryX=0;entryY=0.5;entryDx=0;entryDy=0;entryPerimeter=0;strokeColor=#CCE5FF;strokeWidth=3;align=center;verticalAlign=middle;fontFamily=Helvetica;fontSize=12;fontColor=default;labelBackgroundColor=default;endArrow=none;endFill=0;" edge="1" parent="1" source="PdMRBuFNjOPwppV06eXI-101" target="PdMRBuFNjOPwppV06eXI-112">
          <mxGeometry relative="1" as="geometry" />
        </mxCell>
      </root>
    </mxGraphModel>
  </diagram>
</mxfile>
